<svg width="40" height="41" viewBox="0 0 40 41" fill="none" xmlns="http://www.w3.org/2000/svg">
<circle cx="20" cy="20.3506" r="20" fill="white"/>
<g clip-path="url(#clip0_1_3662)">
<path d="M20 0.350586C8.97204 0.350586 -4.24652e-08 9.32263 -9.46611e-08 20.3506C-1.46853e-07 31.3777 8.97204 40.3506 20 40.3506C31.0271 40.3506 40 31.3777 40 20.3506C40 9.32263 31.0288 0.350586 20 0.350586ZM24.9738 21.0547L21.72 21.0547L21.72 32.6522L16.8984 32.6522C16.8984 32.6522 16.8984 26.3153 16.8984 21.0547L14.6065 21.0547L14.6065 16.9558L16.8984 16.9558L16.8984 14.3045C16.8984 12.4057 17.8007 9.43864 21.7643 9.43864L25.3371 9.45233L25.3371 13.4312C25.3371 13.4312 23.166 13.4312 22.7439 13.4312C22.3218 13.4312 21.7216 13.6423 21.7216 14.5478L21.7216 16.9566L25.3951 16.9566L24.9738 21.0547Z" fill="#BF9550"/>
</g>
<defs>
<clipPath id="clip0_1_3662">
<rect width="40" height="40" fill="white" transform="translate(0 0.350586)"/>
</clipPath>
</defs>
</svg>
