<svg width="16" height="16" viewBox="0 0 16 16" fill="none" xmlns="http://www.w3.org/2000/svg">
<g clip-path="url(#clip0_1_3582)">
<path d="M8.17344 15.0344C12.3121 15.0344 15.6672 11.6793 15.6672 7.54063C15.6672 3.40194 12.3121 0.046875 8.17344 0.046875C4.03476 0.046875 0.679688 3.40194 0.679688 7.54063C0.679688 11.6793 4.03476 15.0344 8.17344 15.0344Z" fill="#BF9550"/>
<path d="M10.4328 12.387C9.98315 12.367 9.45359 12.1672 8.94402 11.8674C7.765 11.168 6.83577 10.2088 6.09639 9.05978C5.4869 8.11057 5.05726 7.09142 4.81746 5.98234C4.70755 5.44279 4.6476 4.89325 4.71754 4.34371C4.83744 3.38451 5.61679 2.49525 6.53602 2.27543C6.87574 2.1955 7.14552 2.30541 7.33536 2.58517C7.44527 2.75503 7.54518 2.93488 7.60513 3.13472C7.73502 3.55437 7.85493 3.98401 7.94485 4.42364C8.02478 4.79333 7.91488 5.03313 7.58515 5.21298C7.34535 5.34288 7.07557 5.45278 6.81579 5.56269C6.50605 5.6726 6.46608 5.74254 6.57599 6.05228C7.08557 7.48109 7.8849 8.72006 8.95401 9.79916C9.02395 9.8691 9.0839 9.93905 9.15384 9.999C9.25376 10.0789 9.37366 10.0989 9.48357 10.029C9.57349 9.96902 9.65343 9.90907 9.72337 9.82914C9.87324 9.66927 10.0231 9.49941 10.183 9.33954C10.4228 9.10974 10.6826 9.06977 10.9623 9.23963C11.5319 9.56935 12.0514 9.96902 12.4611 10.4986C12.7409 10.8683 12.7409 11.208 12.4411 11.5677C12.3312 11.7076 12.1913 11.8275 12.0514 11.9374C11.6518 12.2271 11.0623 12.417 10.4328 12.387Z" fill="white"/>
</g>
<defs>
<clipPath id="clip0_1_3582">
<rect width="14.9875" height="14.9875" fill="white" transform="translate(0.679688 0.046875)"/>
</clipPath>
</defs>
</svg>
