<svg width="16" height="16" viewBox="0 0 16 16" fill="none" xmlns="http://www.w3.org/2000/svg">
<path d="M7.88438 15.0344C12.0231 15.0344 15.3781 11.6793 15.3781 7.54063C15.3781 3.40194 12.0231 0.046875 7.88438 0.046875C3.74569 0.046875 0.390625 3.40194 0.390625 7.54063C0.390625 11.6793 3.74569 15.0344 7.88438 15.0344Z" fill="#BF9550"/>
<path d="M7.88771 13.1861L5.34982 8.78972C5.2599 8.63984 4.39062 7.20104 4.39062 6.04201C4.39062 4.11361 5.95932 2.54492 7.88771 2.54492C9.8161 2.54492 11.3848 4.11361 11.3848 6.04201C11.3848 7.20104 10.5155 8.63984 10.4256 8.79971L7.88771 13.1861ZM7.88771 3.54409C6.50886 3.54409 5.38979 4.66316 5.38979 6.04201C5.38979 6.79138 5.9793 7.91045 6.20911 8.28014L7.88771 11.1877L9.56631 8.29013C9.79612 7.91045 10.3856 6.78139 10.3856 6.04201C10.3856 4.66316 9.26656 3.54409 7.88771 3.54409Z" fill="white"/>
<path d="M7.88938 8.04047C8.71711 8.04047 9.38813 7.36946 9.38813 6.54172C9.38813 5.71398 8.71711 5.04297 7.88938 5.04297C7.06164 5.04297 6.39062 5.71398 6.39062 6.54172C6.39062 7.36946 7.06164 8.04047 7.88938 8.04047Z" fill="white"/>
</svg>
