<svg width="16" height="16" viewBox="0 0 16 16" fill="none" xmlns="http://www.w3.org/2000/svg">
<path d="M8.35313 15.0344C12.4918 15.0344 15.8469 11.6793 15.8469 7.54063C15.8469 3.40194 12.4918 0.046875 8.35313 0.046875C4.21444 0.046875 0.859375 3.40194 0.859375 7.54063C0.859375 11.6793 4.21444 15.0344 8.35313 15.0344Z" fill="#BF9550"/>
<path d="M10.6383 8.82863C10.9681 8.30906 11.1679 7.69957 11.1679 7.04012C11.1679 5.20165 9.67914 3.71289 7.84067 3.71289C6.0022 3.71289 4.52344 5.20165 4.52344 7.04012C4.52344 8.87859 6.0122 10.3673 7.85067 10.3673C8.24034 10.3673 8.62002 10.2874 8.96973 10.1575L11.4277 12.6155L12.9264 11.1167L10.6383 8.82863ZM7.85067 8.7387C6.91145 8.7387 6.15208 7.97934 6.15208 7.04012C6.15208 6.1009 6.91145 5.34153 7.85067 5.34153C8.78988 5.34153 9.54925 6.1009 9.54925 7.04012C9.54925 7.97934 8.78988 8.7387 7.85067 8.7387Z" fill="white"/>
</svg>
