<svg width="40" height="41" viewBox="0 0 40 41" fill="none" xmlns="http://www.w3.org/2000/svg">
<circle cx="20" cy="20.3506" r="20" fill="#BF9550"/>
<g clip-path="url(#clip0_1_3669)">
<path d="M23.8281 20.3506C23.8281 22.4648 22.1143 24.1787 20 24.1787C17.8857 24.1787 16.1719 22.4648 16.1719 20.3506C16.1719 18.2363 17.8857 16.5225 20 16.5225C22.1143 16.5225 23.8281 18.2363 23.8281 20.3506Z" fill="white"/>
<path d="M28.9539 13.5775C28.7698 13.0788 28.4763 12.6274 28.0948 12.257C27.7243 11.8755 27.2733 11.5819 26.7743 11.3979C26.3696 11.2407 25.7617 11.0536 24.642 11.0027C23.4308 10.9474 23.0676 10.9355 20.0012 10.9355C16.9345 10.9355 16.5714 10.9471 15.3604 11.0024C14.2407 11.0536 13.6325 11.2407 13.2281 11.3979C12.7292 11.5819 12.2778 11.8755 11.9077 12.257C11.5262 12.6274 11.2326 13.0785 11.0483 13.5775C10.8911 13.9821 10.704 14.5903 10.6531 15.71C10.5978 16.921 10.5859 17.2841 10.5859 20.3508C10.5859 23.4172 10.5978 23.7804 10.6531 24.9916C10.704 26.1113 10.8911 26.7192 11.0483 27.1239C11.2326 27.6229 11.5259 28.0739 11.9073 28.4444C12.2778 28.8259 12.7289 29.1194 13.2278 29.3035C13.6325 29.4609 14.2407 29.648 15.3604 29.699C16.5714 29.7542 16.9342 29.7658 20.0009 29.7658C23.0679 29.7658 23.4311 29.7542 24.6417 29.699C25.7614 29.648 26.3696 29.4609 26.7743 29.3035C27.7759 28.9171 28.5675 28.1255 28.9539 27.1239C29.111 26.7192 29.2981 26.1113 29.3494 24.9916C29.4046 23.7804 29.4162 23.4172 29.4162 20.3508C29.4162 17.2841 29.4046 16.921 29.3494 15.71C29.2984 14.5903 29.1113 13.9821 28.9539 13.5775ZM20.0012 26.2477C16.7441 26.2477 14.1037 23.6077 14.1037 20.3505C14.1037 17.0934 16.7441 14.4533 20.0012 14.4533C23.2581 14.4533 25.8984 17.0934 25.8984 20.3505C25.8984 23.6077 23.2581 26.2477 20.0012 26.2477ZM26.1316 15.5983C25.3705 15.5983 24.7534 14.9813 24.7534 14.2202C24.7534 13.459 25.3705 12.842 26.1316 12.842C26.8927 12.842 27.5098 13.459 27.5098 14.2202C27.5095 14.9813 26.8927 15.5983 26.1316 15.5983Z" fill="white"/>
<path d="M20 0.350586C8.95599 0.350586 -4.23892e-08 9.30658 -9.46611e-08 20.3506C-1.46933e-07 31.3946 8.95599 40.3506 20 40.3506C31.044 40.3506 40 31.3946 40 20.3506C40 9.30658 31.044 0.350586 20 0.350586ZM31.4151 25.0854C31.3596 26.3079 31.1652 27.1426 30.8813 27.8732C30.2847 29.4158 29.0652 30.6353 27.5226 31.2319C26.7923 31.5157 25.9573 31.7098 24.7351 31.7657C23.5104 31.8215 23.1192 31.835 20.0003 31.835C16.8811 31.835 16.4902 31.8215 15.2652 31.7657C14.043 31.7098 13.208 31.5157 12.4777 31.2319C11.7111 30.9435 11.0172 30.4916 10.4434 29.9072C9.85931 29.3337 9.40735 28.6395 9.11896 27.8732C8.83514 27.1429 8.64075 26.3079 8.5852 25.0857C8.52875 23.8607 8.51562 23.4695 8.51562 20.3506C8.51562 17.2317 8.52875 16.8405 8.5849 15.6158C8.64044 14.3932 8.83453 13.5586 9.11835 12.828C9.40674 12.0617 9.85901 11.3674 10.4434 10.794C11.0168 10.2096 11.7111 9.75763 12.4774 9.46924C13.208 9.18542 14.0427 8.99133 15.2652 8.93549C16.4899 8.87964 16.8811 8.86621 20 8.86621C23.1189 8.86621 23.5101 8.87964 24.7348 8.93579C25.9573 8.99133 26.792 9.18542 27.5226 9.46893C28.2889 9.75732 28.9832 10.2096 29.5569 10.794C30.141 11.3677 30.5933 12.0617 30.8813 12.828C31.1655 13.5586 31.3596 14.3932 31.4154 15.6158C31.4713 16.8405 31.4844 17.2317 31.4844 20.3506C31.4844 23.4695 31.4713 23.8607 31.4151 25.0854Z" fill="#BF9550"/>
</g>
<defs>
<clipPath id="clip0_1_3669">
<rect width="40" height="40" fill="white" transform="translate(0 0.350586)"/>
</clipPath>
</defs>
</svg>
